<svg id="e8345542-4160-463b-841e-d6381701a249" data-name="Layer 1" xmlns="http://www.w3.org/2000/svg" xmlns:xlink="http://www.w3.org/1999/xlink" width="1014.9" height="616.5" viewBox="0 0 1014.92 616.5"><defs><linearGradient id="b96c1e95-21f7-460f-8fe8-281b03b6a731" x1="223" y1="366.33" x2="223" gradientUnits="userSpaceOnUse"><stop offset="0" stop-color="grey" stop-opacity="0.25"/><stop offset="0.5" stop-color="grey" stop-opacity="0.12"/><stop offset="1" stop-color="grey" stop-opacity="0.1"/></linearGradient><linearGradient id="fdf2261c-aea2-449f-acb5-ed46fbfe76ac" x1="315" y1="481.74" x2="315" y2="115.42" gradientTransform="matrix(-1, 0, 0, 1, 1106.92, -115.42)" xlink:href="#b96c1e95-21f7-460f-8fe8-281b03b6a731"/><linearGradient id="bdb7606e-5185-43e5-b133-41bac9927d37" x1="508" y1="616.5" x2="508" y2="159.83" xlink:href="#b96c1e95-21f7-460f-8fe8-281b03b6a731"/></defs><title>windows</title><g opacity="0.5"><rect width="446" height="366.3" fill="url(#b96c1e95-21f7-460f-8fe8-281b03b6a731)"/></g><rect x="5.2" y="6.9" width="434.7" height="353.3" fill="#f2f2f2"/><rect x="5.2" y="6.9" width="434.7" height="78.8" fill="#0097a7"/><rect x="8.5" y="8.6" width="434.7" height="78.8" opacity="0.1"/><rect x="39.8" y="114.3" width="365.5" height="45.9" fill="#e0e0e0"/><rect x="39.8" y="194.8" width="266.7" height="15.6" fill="#e0e0e0"/><rect x="39.8" y="221.7" width="173.2" height="15.6" fill="#e0e0e0"/><rect x="39.8" y="248.6" width="228.6" height="15.6" fill="#e0e0e0"/><rect x="39.8" y="275.4" width="266.7" height="15.6" fill="#e0e0e0"/><rect x="39.8" y="302.2" width="89.2" height="15.6" fill="#e0e0e0"/><g opacity="0.5"><rect x="568.9" width="446" height="366.3" fill="url(#fdf2261c-aea2-449f-acb5-ed46fbfe76ac)"/></g><rect x="665.7" y="118.6" width="434.7" height="353.3" transform="matrix(-1,0,0,-1,1676.7,482.6)" fill="#f2f2f2"/><rect x="665.7" y="148.6" width="436" height="52.6" transform="matrix(-1,0,0,-1,1676.7,208.1)" fill="#0097a7"/><rect x="665.7" y="151.1" width="434.7" height="50.1" transform="matrix(-1,0,0,-1,1676.7,208.1)" opacity="0.1"/><rect x="701.6" y="229.7" width="365.5" height="45.9" transform="translate(1676.7,389.9) rotate(-180)" fill="#e0e0e0"/><rect x="800.4" y="310.3" width="266.7" height="15.6" transform="translate(1775.4,520.7) rotate(-180)" fill="#e0e0e0"/><rect x="893.9" y="337.1" width="173.2" height="15.6" transform="translate(1869,574.4) rotate(-180)" fill="#e0e0e0"/><rect x="838.5" y="364" width="228.6" height="15.6" transform="translate(1813.5,628.1) rotate(-180)" fill="#e0e0e0"/><rect x="800.4" y="390.8" width="266.7" height="15.6" transform="matrix(-1,0,0,-1,1775.4,681.8)" fill="#e0e0e0"/><rect x="977.9" y="417.7" width="89.2" height="15.6" transform="translate(1953,735.5) rotate(-180)" fill="#e0e0e0"/><g opacity="0.5"><rect x="230" y="159.8" width="556" height="456.7" fill="url(#bdb7606e-5185-43e5-b133-41bac9927d37)"/></g><rect x="236.5" y="168.5" width="542" height="440.5" fill="#ffffff"/><rect x="235.2" y="163.5" width="543.2" height="70.7" fill="#0097a7"/><rect x="279.7" y="302.3" width="455.6" height="57.2" fill="#f5f5f5"/><rect x="279.7" y="402.7" width="332.5" height="19.4" fill="#e0e0e0"/><rect x="279.7" y="436.2" width="215.9" height="19.4" fill="#e0e0e0"/><rect x="279.7" y="469.7" width="285" height="19.4" fill="#e0e0e0"/><rect x="279.7" y="503.1" width="332.5" height="19.4" fill="#e0e0e0"/><rect x="279.7" y="536.6" width="111.2" height="19.4" fill="#e0e0e0"/><rect x="303.4" y="321.8" width="129.6" height="17.3" fill="#69f0ae"/>
    <ellipse cx="40.8" cy="44.2" fill="rgb(190, 57, 57)" rx="15.8" ry="15.8"/>
    <ellipse cx="82.5" cy="44.2" fill="rgb(215, 188, 17)" rx="15.8" ry="15.8"/>
    <linearGradient id="dwojrhum"/>
    <ellipse cx="125.8" cy="44.2" fill="rgb(88, 186, 43)" rx="15.8" ry="15.8"/>
    <rect fill="rgba(255, 255, 255, 0.48)" stroke="rgba(0, 0, 0, 0.21)" height="23.8" width="22.9" x="702.9" y="188.3"/>
    <text font-size="29.5" textLength="140" fill="rgb(255, 255, 255)" stroke="rgba(0, 0, 0, 0.21)" x="740.6" y="209.8">
        X
    </text>
    <rect fill="rgba(255, 255, 255, 0.83)" height="5" stroke="rgba(0, 0, 0, 0.21)" width="25" x="661.3" y="197.5"/>
</svg>